<?xml version="1.0" encoding="UTF-8" standalone="no"?>
<!-- Created with Inkscape (http://www.inkscape.org/) -->

<svg
   width="38.00111mm"
   height="37.985367mm"
   viewBox="0 0 38.00111 37.985367"
   version="1.1"
   id="svg5"
   xml:space="preserve"
   inkscape:export-filename="bitmap.svg"
   inkscape:export-xdpi="96"
   inkscape:export-ydpi="96"
   sodipodi:docname="logo.svg"
   inkscape:version="1.2.2 (b0a84865, 2022-12-01)"
   xmlns:inkscape="http://www.inkscape.org/namespaces/inkscape"
   xmlns:sodipodi="http://sodipodi.sourceforge.net/DTD/sodipodi-0.dtd"
   xmlns="http://www.w3.org/2000/svg"
   xmlns:svg="http://www.w3.org/2000/svg"><sodipodi:namedview
     id="namedview7"
     pagecolor="#ffffff"
     bordercolor="#000000"
     borderopacity="0.25"
     inkscape:showpageshadow="2"
     inkscape:pageopacity="0.0"
     inkscape:pagecheckerboard="0"
     inkscape:deskcolor="#d1d1d1"
     inkscape:document-units="mm"
     showgrid="false"
     inkscape:zoom="7.1534674"
     inkscape:cx="51.163999"
     inkscape:cy="50.954311"
     inkscape:window-width="1390"
     inkscape:window-height="1205"
     inkscape:window-x="2240"
     inkscape:window-y="25"
     inkscape:window-maximized="0"
     inkscape:current-layer="layer1" /><defs
     id="defs2" /><g
     inkscape:label="Layer 1"
     inkscape:groupmode="layer"
     id="layer1"
     transform="translate(-104.91101,-114.79682)"><path
       style="display:inline;fill:#ff6600;stroke-width:0.264583"
       d="m 119.99029,152.45839 c -2.50417,-0.53829 -3.30194,-0.86754 -8.93644,-3.68813 -5.66865,-2.83769 -6.14284,-3.2587 -6.14284,-5.45403 0,-1.76256 0.73171,-2.75526 2.77274,-3.76174 0.94776,-0.46736 1.7232,-0.9177 1.7232,-1.00076 0,-0.083 -0.77544,-0.53339 -1.7232,-1.00075 -2.04103,-1.00648 -2.77274,-1.99918 -2.77274,-3.76175 0,-1.76256 0.73171,-2.75526 2.77274,-3.76174 0.94776,-0.46736 1.7232,-0.9177 1.7232,-1.00076 0,-0.0831 -0.77544,-0.53339 -1.7232,-1.00075 -2.04103,-1.00648 -2.77274,-1.99918 -2.77274,-3.76175 0,-2.24663 0.43086,-2.61408 6.6785,-5.69578 3.09246,-1.52538 6.33703,-2.95702 7.21015,-3.18142 3.61446,-0.92896 8.06162,-0.75528 11.58618,0.45248 2.35463,0.80686 10.50397,4.91108 11.37064,5.72655 0.95915,0.90249 1.35837,2.38095 1.00114,3.70759 -0.33341,1.23821 -1.00276,1.87466 -3.04672,2.89698 l -1.57834,0.78943 1.44605,0.72323 c 2.74484,1.3728 3.75088,2.99162 3.17901,5.11536 -0.33341,1.23821 -1.00276,1.87466 -3.04672,2.89698 l -1.57834,0.78943 1.34218,0.68014 c 0.73821,0.37408 1.71411,0.99308 2.16866,1.37557 1.60203,1.34801 1.65723,4.01877 0.11308,5.47158 -1.02158,0.96116 -8.87762,4.83306 -11.7774,5.80458 -2.91762,0.97749 -7.15444,1.24872 -9.98879,0.63946 z m 7.9798,-4.28444 c 1.74762,-0.51899 9.74728,-4.5043 9.74728,-4.85595 0,-0.14283 -0.85202,-0.68877 -1.89339,-1.21319 -2.17502,-1.09533 -2.36548,-1.09057 -5.85448,0.14625 -4.194,1.48673 -9.17756,1.3499 -13.47666,-0.37001 -0.93689,-0.37481 -1.9005,-0.68148 -2.14133,-0.68148 -0.48501,0 -4.41539,1.88215 -4.41539,2.11441 0,0.0805 2.11336,1.18388 4.69635,2.45203 5.81196,2.85346 6.81834,3.14858 10.03853,2.9437 1.04642,-0.0666 2.53101,-0.30766 3.29909,-0.53576 z m 0,-9.525 c 1.75823,-0.52214 9.74728,-4.5053 9.74728,-4.85978 0,-0.14494 -4.10766,-2.31632 -9.12813,-4.8253 -5.02046,-2.50898 -9.12812,-4.63425 -9.12812,-4.72283 0,-0.0886 0.84488,-0.55048 1.8775,-1.02645 2.51865,-1.16092 3.20848,-1.03972 8.14,1.43016 l 3.95082,1.9787 2.14396,-1.0368 c 1.17918,-0.57024 2.14397,-1.1594 2.14397,-1.30924 0,-0.34629 -7.37498,-4.05088 -9.43161,-4.73767 -4.33109,-1.44633 -7.32748,-0.96837 -13.78558,2.19899 -2.51023,1.23114 -4.56406,2.33404 -4.56406,2.4509 0,0.11685 4.10766,2.26526 9.12812,4.77424 5.02047,2.50898 9.12813,4.66344 9.12813,4.78769 0,0.36977 -3.54832,1.89176 -4.41037,1.89176 -0.45872,0 -2.61595,-0.89192 -5.08854,-2.10388 -3.51691,-1.72384 -4.40479,-2.06109 -4.9153,-1.86699 -1.26586,0.48127 -3.84204,1.86837 -3.84204,2.06867 0,0.41919 9.40991,4.83258 11.1125,5.21193 1.99192,0.44382 4.8216,0.31949 6.92147,-0.3041 z"
       id="path328" /></g></svg>
